<?xml version="1.0" ?><!-- Uploaded to: SVG Repo, www.svgrepo.com, Generator: SVG Repo Mixer Tools -->
<svg fill="#000000" width="800px" height="800px" viewBox="0 0 750 750" id="Layer_1" xmlns="http://www.w3.org/2000/svg"><path d="M612.79,367.07c-5.22-3.26-5.96-6.86-5.54-12.1,.88-10.98,1.54-21.98,2.06-32.98,1.11-23.24,2.21-46.48,3.04-69.73,.73-20.37,2.03-40.79,1.36-61.13-.72-21.8-6.11-42.74-17.68-61.7-5.76-9.43-13.46-16.7-24.18-19.53-20.68-5.46-41.38-2.88-61.72,2.04-11.18,2.7-16.85,11.23-17.29,22.56-.27,6.89,.58,13.83,1.04,20.75,.5,7.61,1.13,15.22,1.76,23.54-20.47,3.21-32.85,15.38-41.55,32.12-7.41,14.27-8.05,29.82-8.21,45.31-.08,8.03,3.98,11.25,12.61,11.54,15.1,.52,30.23,1.37,45.31,.9,13-.4,26.08-1.65,38.88-3.94,15.21-2.71,22.86-15.48,16.6-29.3-7.86-17.37-16.04-34.96-30.91-48.02-1.79-1.57-4.4-3.37-4.67-5.33-1.63-11.96-4.62-23.93-1.84-37.38,9.06-.79,17.92-1.73,26.79-2.31,19.93-1.31,28.58-.92,36.31,26.7,.44,1.57,.63,3.2,1,4.79,11.5,48.87,9.03,98.07,3.17,147.28-1.48,12.41-4.33,24.66-6.5,36.68-18.87,1.27-36.3,3.21-53.76,3.46-49.4,.72-98.8,.79-148.21,1.03-20.01,.1-40.03-.51-60.02,.05-32.63,.91-65.23,2.68-97.86,3.75-13.87,.45-27.77-.14-41.66,.13-3.93,.07-7.89,1.27-11.74,2.34-5.4,1.5-10.59,4.18-16.07,4.9-19.56,2.59-30.65,13.29-33.23,33.05-2.71,20.69,5.9,34.49,25.83,41.42,3.41,1.18,6.82,2.35,10.61,3.65,.8,6.02,1.72,11.63,2.28,17.27,2.23,22.72,9.21,43.84,21.3,63.2,5.62,9,11.35,17.95,17.52,26.57,3.86,5.39,4.53,10.03,2.58,16.77-6.1,21.05-.82,39.74,15.86,54.24,17.35,15.09,39.92,13.76,54.83-2,6.48-6.85,6.93-15.08,6.52-24.03,2.75-.19,4.74-.41,6.73-.46,58.04-1.56,115.88,3.64,173.82,5.31,6.23,.18,9.64,2.84,12.1,8.22,5.54,12.12,14.75,20.39,27.49,24.49,16.21,5.21,29.57,.1,37.39-14.44,4.87-9.06,8.28-18.57,8.2-29.14-.02-3.06,.38-6.87,2.15-9.09,14.73-18.44,23.42-40.1,33.08-61.21,10.77-23.54,18.52-48.01,18.73-74.2,.05-6.18,3.6-8.43,7.84-11.11,13.08-8.27,21.18-20.06,24.24-35.26,3.64-18.09-.85-29.95-16.41-39.65Zm-86.8-133.31c-16.78,3.42-33.41,5.54-50.44,5.34,.69-13.31,10.17-22.82,23.97-24.84,11.85-1.74,20.34,4.29,26.47,19.5ZM228.95,593.58c7.18,2.4,14.36,4.81,23.17,7.76-11.98,4.64-15.84,3.47-23.17-7.76Zm333.87-101.53c-5.3,21.62-15.21,41.24-29.17,58.72-7.57,9.48-17.01,14.08-29.46,14.69-42.35,2.09-84.59,5.24-126.69,11.08-42.39,5.88-84.64,3.3-125.91-9.49-10.91-3.38-19.93-8.82-26.67-18.24-12.84-17.93-26.02-35.7-33.21-56.82-3.22-9.47-4.83-19.48-7.59-30.99,5.09,0,7.14-.35,9.02,.05,20.63,4.4,41.48,2.21,62.24,2.01,60-.58,120-1.8,180-1.79,32.69,0,65.25-1.1,97.79-4.14,10.45-.98,21.07-.15,32.55-.15,2.61,11.42-.04,23.45-2.89,35.07Zm4.34-71.81c-12.61,.52-25.32,.13-37.93-.75-49.14-3.45-97.88,.15-146.1,9.35-47.34,9.03-94.66,9.66-142.44,4.61-26.84-2.83-53.46-5.78-78.83-15.57-3.98-1.54-7.86-3.35-11.79-5.03,.11-.93,.23-1.86,.34-2.79,7-.97,13.97-2.47,21-2.8,20.37-.95,40.83-.65,61.14-2.29,25.97-2.11,51.88-5.22,77.71-8.67,27.85-3.72,55.53-8.75,83.38-12.45,22.5-2.99,44.81,.45,66.81,4.98,33.96,6.99,67.88,13.67,102.77,14.07,10.77,.13,21.53,2.16,34.68,3.57-9.41,11.19-20.04,13.3-30.76,13.75Z"/><path d="M465.16,338.59c.1,1.49,.11,2.71,.27,3.92,1.05,7.71,6.28,13.3,12.13,13.02,5.21-.25,10.35-5.73,11.27-12.69,.42-3.16,.33-6.57-.4-9.66-1.53-6.52-6.65-10.81-11.74-10.56-5.09,.24-9.72,4.97-11.04,11.4-.32,1.58-.35,3.23-.49,4.59Z"/><path d="M543.2,278.23c-5.87-.09-8.88,3.6-10.74,8.29-1.02,2.55-1.22,5.55-1.22,8.35,0,8.94,5.23,15.91,11.72,16,6.71,.09,12.51-7.91,12.26-18.58-.35-1.18-.89-3.98-1.99-6.54-1.86-4.32-4.76-7.43-10.02-7.51Z"/><path d="M478.68,313.85c5.71,.19,8.67-3.74,10.8-8.46,2.52-5.57,2.92-11.47-.46-16.42-2.28-3.34-6.13-6.82-9.87-7.68-5.47-1.27-8.74,3.39-10.76,8.11-.95,2.22-1.24,4.72-1.93,7.47,.52,2.48,.81,5.37,1.76,8.02,1.75,4.86,4.83,8.77,10.46,8.96Z"/><path d="M536.46,323.05c-1.78,3.02-2.31,6.77-3.14,9.32,.49,3.47,.53,5.98,1.24,8.27,1.54,4.99,4.84,8.85,10.13,9.38,5.47,.54,8.91-3.04,11.12-7.84,3.16-6.86,2.62-13.56-1.46-19.72-4.76-7.2-13.46-6.95-17.9,.58Z"/><path d="M508.63,281.12c-6.27-.13-11.86,7.2-12.11,15.92-.03,1.22,.07,2.44,.22,3.65,1.01,8.06,5.62,13.32,11.7,13.42,5.8,.09,10.9-5.45,12.1-13.2,.19-1.2,.17-2.44,.22-3.19-.24-8.91-5.91-16.46-12.13-16.59Z"/><path d="M501.9,332.65c-.02,.41-.02,.81-.02,1.22,.08,8.99,5.02,16.01,11.5,16.35,6.66,.34,12.55-7.55,12.5-16.75-.04-8.86-5.01-15.63-11.71-15.99-6.85-.36-11.93,5.91-12.27,15.17Z"/></svg>