<?xml version="1.0" ?><!-- Uploaded to: SVG Repo, www.svgrepo.com, Generator: SVG Repo Mixer Tools -->
<svg fill="#000000" width="800px" height="800px" viewBox="0 0 750 750" id="Layer_1" xmlns="http://www.w3.org/2000/svg"><path d="M552.47,369.12c-3.66-38.49-4.49-76.91-1.74-115.48,1.5-21.07,2.27-42.2,2.68-63.32,.23-11.88-1.37-23.67-7.59-34.31-3.45-5.9-8.01-9.49-15.23-9.15-12.59,.6-25.2,.95-37.79,1.5-29.63,1.28-59.25,3.6-88.89,3.69-40.04,.12-80.09-1.44-120.13-2.35-4.07-.09-8.12-.91-12.19-1.02-14.45-.4-28.93-1.33-43.34-.76-15.93,.63-26.23,9.56-27.07,22.72-2.45,38.07-6.01,76.15-6.36,114.26-.53,57.44,.97,114.91,2.29,172.35,.55,24.06,2.85,48.09,4.36,72.13,.63,9.98,1.01,19.99,2.01,29.94,1.38,13.68,5.68,17.22,19.39,17.03,4.99-.07,9.98-.01,15.47-.01-.31,2.49-.54,3.91-.65,5.34-1.02,12.92,3.5,18.49,16.47,19.5,11.45,.9,22.93,1.5,34.41,1.9,18.5,.63,20.1-.93,21.76-19.38,.06-.64,.68-1.23,.76-1.37h132.83c1.12,2.33,1.68,3.26,2.02,4.26,4.15,11.99,4.87,12.68,17.39,12.74,16.69,.08,33.39,.03,50.08-.21,8.72-.12,12.92-3.96,13.95-12.49,.43-3.6,.07-7.31,.07-11.15,1.96-.7,3.28-1.21,4.63-1.65,15.58-5.07,17.18-7.05,17.97-23.65,1.85-39.25,4.23-78.49,5.15-117.76,.49-21.06-.71-42.27-2.7-63.27Zm-190.72-188.32c3.02-1,4.99-2.08,7.04-2.28,48.76-4.83,97.62-6.58,146.6-4.79,8.86,.32,10.19,1,10.04,8.21-.47,22.53-1.49,45.05-2.31,67.79-22.64,5.13-146.89,4.82-163.52-.65,.7-22.33,1.42-45.17,2.15-68.28Zm-134.4-.2c36.56-2,72.6,.27,110.53-.27-.46,7.44-.81,13.23-1.21,19.63-18.45,4-36.92,2.88-55.19,4.06-18.38,1.19-36.78,2.26-56.58,3.47,.75-8.32,1.53-16.89,2.44-26.89Zm-6.54,59.89c37.81-2.68,75.22-5.33,113.99-8.08,.62,5.97,1.13,10.87,1.78,17.15-4.49,.73-8.27,1.81-12.07,1.89-15.15,.31-30.31,.33-45.46,.4-16.26,.07-32.53,.08-48.79,.12-2.9,0-5.8,0-10.18,0,.29-4.48,.47-7.3,.74-11.47Zm313.33,313.42c-4.66,.45-8.98,1.39-13.24,1.21-22.96-.99-45.94-1.71-68.84-3.53-60.69-4.81-121.4-7.6-182.26-3.85-16.95,1.04-33.86,2.61-52.05,4.03-.59-3.65-1.84-7.53-1.71-11.35,.76-22.59,1.59-45.18,2.9-67.74,1.46-25.15,4.82-50.27,4.85-75.41,.03-24.01-3.46-48-4.78-72.04-.71-12.86-.13-25.78-.13-40.23,17.38-.79,34.36-1.74,51.36-2.31,30.03-1,60.19-.38,90.08-2.95,42.23-3.63,84.43-4.33,126.72-3.61,12.2,.21,24.39,1.09,37.65,1.72,.41,3.51,1.13,6.67,1.08,9.82-.3,20.01-.7,40.02-1.19,60.03-1.05,43.03-.64,85.96,4.57,128.81,2.73,22.42,3.8,45.04,5.5,67.59,.22,2.87-.28,5.8-.51,9.81Z"/><path d="M414.06,288.01c-12.14-3.85-24.74-5-37.32-2.2-7.85,1.75-15.37,4.28-23.73,2.1-3.23-.84-7.35,.58-10.77,1.78-37.61,13.27-63.71,38.28-76.74,76.23-5.85,17.05-6.56,34.87-6.86,52.69,0,2.6,.1,5.19-.02,7.78-1.09,24.9,8.29,45.04,25.94,62.58,26.84,26.68,58.7,43.42,95.14,52.3,10.65,2.6,21.33,2.91,31.89,.32,32.97-8.1,55.88-28.73,68.94-59.34,10.05-23.56,14.39-48.95,17.97-74.29,.82-5.83,1.01-11.88,.53-17.74-4.32-53.04-34.5-86.22-84.97-102.22Zm59.12,133.94c-1.98,7.51-4.24,14.96-6.6,22.36-11.28,35.42-36.37,56.86-71.63,64.25-32.67,6.84-62.47-3.33-87.38-25.54-23.51-20.97-28.21-34.02-26.64-68.03,.32-4.51,.77-10.05,1.11-15.6,1.08-17.67,7.73-33.02,19.23-46.36,10.07-11.68,22.33-20.52,35.9-27.66,.98-.52,2.12-1.5,3-1.33,11.24,2.18,19.18-6.6,29.06-8.5,5.59-1.07,11.94-.98,17.39,.55,34.05,9.51,61.87,28.05,80.52,58.67,8.93,14.65,10.4,30.69,6.04,47.2Z"/><path d="M489.32,237.77c10.66-8,16.22-27.08,10.83-39.25-3.59-8.11-9.56-15.45-18.96-14.94-15.74,.86-28.49,6.13-29.14,27.68-.31,8.08,1.57,15.46,7.01,21.65,7.43,8.46,22.3,10.83,30.26,4.86Z"/><path d="M445.7,199.26c-2.21-9.85-7.56-17.15-17.54-19.48-9.81-2.29-17.37,3.06-23.12,10.14-7.4,9.14-8.13,19.79-3.2,30.32,4.06,8.67,11.18,13.59,22.84,13.74,5.21,.59,10.66-2.32,14.7-7.61,6.13-8.02,8.58-17.02,6.32-27.12Z"/><path d="M410.45,335.51c-13.78-8.43-29.2-15.47-45.11-2.93-1.1,.87-2.75,1.06-4.15,1.52-29.42,9.65-55.23,42.74-58.23,73.62-3.52,36.17,22.05,68.27,48.19,79.25,10.38,4.36,21.19,6.04,32.55,3.8,18.23-3.6,33.16-12.79,44.76-26.89,12.04-14.63,23.57-29.84,21.31-47.83,2.58-36.6-10.62-62.98-39.3-80.53Zm-57.71,118.36c5.3-2.69,10.71-4.75,15.33-7.95,4.83-3.35,8.73-8,13.35-11.71,6.04-4.86,10.32-4.89,17.18-.2,5.79,3.96,11.32,8.3,17.57,12.91-15.64,19.07-44.05,22.19-63.41,6.95Zm64.02-41.3c-3.23-3.03-6.79-5.78-10.48-8.24-11.46-7.64-25.32-7.15-36.29,1.16-2.06,1.56-3.89,3.43-5.78,5.21-12.05,11.34-21.57,12.41-37.45,3.88,0-1.19-.39-2.75,.06-4.02,5.04-14.17,12.48-26.72,23.88-36.88,13.32-11.87,28.8-12.1,43.71-6.14,18.32,7.33,33.87,18.74,37.49,40.4,.24,1.44,.19,2.93,.31,4.9-5.87,4.64-10.62,4.26-15.47-.28Z"/></svg>